# xmcd
#
# Track frame offsets:
#	150
#	14834
#	30713
#	42603
#	55542
#	67140
#	81642
#	94437
#	106743
#	117771
#	134921
#	151706
#	172069
#	187861
#	206718
#	221256
#	235519
#	255657
#
# Disc length: 3697 seconds
#
# Revision: 1
# Processed by: cddbd v1.5.2PL0 Copyright (c) Steve Scherf et al.
# Submitted via: EasyCDDAExtractor 6.2.0.3
#
DISCID=040e6f12
DTITLE=Various Artist - Country "My Sounds" CD3
DYEAR=2007
DGENRE=Country
TTITLE0=Glen Campbell - Rhinestone cowboy
TTITLE1=Kenny Rogers - The gambler
TTITLE2=Crystal Gayle - Don't it make my brown eyes blue
TTITLE3=Bobbie Gentry - I'll never fall in love again
TTITLE4=George Jones - She thinks I still care
TTITLE5=Don Williams - Another place,another time
TTITLE6=Dr. Hook - Sharing the night together
TTITLE7=Billie Jo Spears - What I've got in mind
TTITLE8=Jerry Wallace - Primrose Lane
TTITLE9=Tanya Tucker - Love me like you used to do
TTITLE10=Suzy Bogguss - Train of thought
TTITLE11=Asleep At The Wheel - Lay down Sally
TTITLE12=Johnny Rodriguez - I didn't [every chance I had]
TTITLE13=Deana Carter - How do I get there
TTITLE14=Emilio - Somebody stop me
TTITLE15=Chris Ledoux and Charlie Daniels - Cowboys like a little rock 'n' roll
TTITLE16=Steve Wariner - Two teardrops
TTITLE17=Dan Seals - Everything that glitters [is not gold]
EXTD=
EXTT0=
EXTT1=
EXTT2=
EXTT3=
EXTT4=
EXTT5=
EXTT6=
EXTT7=
EXTT8=
EXTT9=
EXTT10=
EXTT11=
EXTT12=
EXTT13=
EXTT14=
EXTT15=
EXTT16=
EXTT17=
PLAYORDER=
